HIERARCHY
ROOT hip
{
  OFFSET -51.4602 84.4659 -87.1791
  CHANNELS 6 Xposition Yposition Zposition Zrotation Xrotation Yrotation
  JOINT abdomen
  {
    OFFSET 0 20.6881 -0.73152
    CHANNELS 3 Zrotation Xrotation Yrotation
    JOINT chest
    {
      OFFSET 0 11.7043 -0.48768
      CHANNELS 3 Zrotation Xrotation Yrotation
      JOINT neck
      {
        OFFSET 0 22.1894 -2.19456
        CHANNELS 3 Zrotation Xrotation Yrotation
        JOINT head
        {
          OFFSET -0.24384 7.07133 1.2192
          CHANNELS 3 Zrotation Xrotation Yrotation
          JOINT leftEye
          {
            OFFSET 4.14528 8.04674 8.04672
            CHANNELS 3 Zrotation Xrotation Yrotation
            End Site
            {
              OFFSET 1 0 0
            }
          }
          JOINT rightEye
          {
            OFFSET -3.6576 8.04674 8.04672
            CHANNELS 3 Zrotation Xrotation Yrotation
            End Site
            {
              OFFSET 1 0 0
            }
          }
        }
      }
      JOINT rCollar
      {
        OFFSET -2.68224 19.2634 -4.8768
        CHANNELS 3 Zrotation Xrotation Yrotation
        JOINT rShldr
        {
          OFFSET -8.77824 -1.95073 1.46304
          CHANNELS 3 Zrotation Xrotation Yrotation
          JOINT rForeArm
          {
            OFFSET -28.1742 -1.7115 0.48768
            CHANNELS 3 Zrotation Xrotation Yrotation
            JOINT rHand
            {
              OFFSET -22.5879 0.773209 7.07136
              CHANNELS 3 Zrotation Xrotation Yrotation
              JOINT rThumb1
              {
                OFFSET -1.2192 -0.487915 3.41376
                CHANNELS 3 Zrotation Xrotation Yrotation
                JOINT rThumb2
                {
                  OFFSET -3.37035 -0.52449 3.41376
                  CHANNELS 3 Zrotation Xrotation Yrotation
                  End Site
                  {
                    OFFSET -1.78271 -1.18214 1.43049
                  }
                }
              }
              JOINT rIndex1
              {
                OFFSET -7.75947 0.938293 5.60832
                CHANNELS 3 Zrotation Xrotation Yrotation
                JOINT rIndex2
                {
                  OFFSET -2.54057 -0.884171 1.56538
                  CHANNELS 3 Zrotation Xrotation Yrotation
                  End Site
                  {
                    OFFSET -1.62519 -0.234802 1.16502
                  }
                }
              }
              JOINT rMid1
              {
                OFFSET -8.24714 1.18213 3.41376
                CHANNELS 3 Zrotation Xrotation Yrotation
                JOINT rMid2
                {
                  OFFSET -3.10165 -0.590103 1.0647
                  CHANNELS 3 Zrotation Xrotation Yrotation
                  End Site
                  {
                    OFFSET -2.48547 -0.328903 0.83742
                  }
                }
              }
              JOINT rRing1
              {
                OFFSET -8.82822 0.546677 1.51678
                CHANNELS 3 Zrotation Xrotation Yrotation
                JOINT rRing2
                {
                  OFFSET -2.60934 -0.819778 -0.0198488
                  CHANNELS 3 Zrotation Xrotation Yrotation
                  End Site
                  {
                    OFFSET -2.33842 -0.294052 0.168128
                  }
                }
              }
              JOINT rPinky1
              {
                OFFSET -8.27202 -0.0477905 -0.4584
                CHANNELS 3 Zrotation Xrotation Yrotation
                JOINT rPinky2
                {
                  OFFSET -1.82734 -0.647385 -0.700984
                  CHANNELS 3 Zrotation Xrotation Yrotation
                  End Site
                  {
                    OFFSET -1.69225 -0.51767 -0.607171
                  }
                }
              }
            }
          }
        }
      }
      JOINT lCollar
      {
        OFFSET 2.68224 19.2634 -4.8768
        CHANNELS 3 Zrotation Xrotation Yrotation
        JOINT lShldr
        {
          OFFSET 8.77824 -1.95073 1.46304
          CHANNELS 3 Zrotation Xrotation Yrotation
          JOINT lForeArm
          {
            OFFSET 28.1742 -1.7115 0.48768
            CHANNELS 3 Zrotation Xrotation Yrotation
            JOINT lHand
            {
              OFFSET 22.5879 0.773209 7.07136
              CHANNELS 3 Zrotation Xrotation Yrotation
              JOINT lThumb1
              {
                OFFSET 1.2192 -0.487915 3.41376
                CHANNELS 3 Zrotation Xrotation Yrotation
                JOINT lThumb2
                {
                  OFFSET 3.37035 -0.52449 3.41376
                  CHANNELS 3 Zrotation Xrotation Yrotation
                  End Site
                  {
                    OFFSET 1.78271 -1.18214 1.43049
                  }
                }
              }
              JOINT lIndex1
              {
                OFFSET 7.75947 0.938293 5.60832
                CHANNELS 3 Zrotation Xrotation Yrotation
                JOINT lIndex2
                {
                  OFFSET 2.54057 -0.884171 1.56538
                  CHANNELS 3 Zrotation Xrotation Yrotation
                  End Site
                  {
                    OFFSET 1.62519 -0.234802 1.16502
                  }
                }
              }
              JOINT lMid1
              {
                OFFSET 8.24714 1.18213 3.41376
                CHANNELS 3 Zrotation Xrotation Yrotation
                JOINT lMid2
                {
                  OFFSET 3.10165 -0.590103 1.0647
                  CHANNELS 3 Zrotation Xrotation Yrotation
                  End Site
                  {
                    OFFSET 2.48547 -0.328903 0.83742
                  }
                }
              }
              JOINT lRing1
              {
                OFFSET 8.82822 0.546677 1.51678
                CHANNELS 3 Zrotation Xrotation Yrotation
                JOINT lRing2
                {
                  OFFSET 2.60934 -0.819778 -0.0198488
                  CHANNELS 3 Zrotation Xrotation Yrotation
                  End Site
                  {
                    OFFSET 2.33842 -0.294052 0.168128
                  }
                }
              }
              JOINT lPinky1
              {
                OFFSET 8.27202 -0.0477905 -0.4584
                CHANNELS 3 Zrotation Xrotation Yrotation
                JOINT lPinky2
                {
                  OFFSET 1.82734 -0.647385 -0.700984
                  CHANNELS 3 Zrotation Xrotation Yrotation
                  End Site
                  {
                    OFFSET 1.69225 -0.51767 -0.607171
                  }
                }
              }
            }
          }
        }
      }
    }
  }
  JOINT rButtock
  {
    OFFSET -8.77824 4.35084 1.2192
    CHANNELS 3 Zrotation Xrotation Yrotation
    JOINT rThigh
    {
      OFFSET 0 -1.70687 -2.19456
      CHANNELS 3 Zrotation Xrotation Yrotation
      JOINT rShin
      {
        OFFSET 0 -36.8199 0.73152
        CHANNELS 3 Zrotation Xrotation Yrotation
        JOINT rFoot
        {
          OFFSET 0.73152 -45.1104 -5.12064
          CHANNELS 3 Zrotation Xrotation Yrotation
          End Site
          {
            OFFSET -1.1221 -3.69964 12.103
          }
        }
      }
    }
  }
  JOINT lButtock
  {
    OFFSET 8.77824 4.35084 1.2192
    CHANNELS 3 Zrotation Xrotation Yrotation
    JOINT lThigh
    {
      OFFSET 0 -1.70687 -2.19456
      CHANNELS 3 Zrotation Xrotation Yrotation
      JOINT lShin
      {
        OFFSET 0 -36.8199 0.73152
        CHANNELS 3 Zrotation Xrotation Yrotation
        JOINT lFoot
        {
          OFFSET -0.73152 -45.1104 -5.12064
          CHANNELS 3 Zrotation Xrotation Yrotation
          End Site
          {
            OFFSET 1.1221 -3.69964 12.103
          }
        }
      }
    }
  }
}
MOTION
Frames:	4
Frame Time:	0.00833333
-46.0781 83.8274 -88.9902 5.52281 -3.38117 -89.1601 7.04755 5.53769 0.9144 2.50069 -6.75388 0.688922 -5.64861 -5.37877 -3.7424 3.62502 8.6969 -5.02529 -0 0 0 -0 0 0 6.0409e-014 -1.02639e-012 7.8669e-014 61.6805 43.857 19.0059 -28.1353 -39.6298 83.2608 -0.254901 -14.228 -2.04219 4.04074e-011 -1.65236e-009 -3.64691e-009 1.05089e-010 -2.86193e-009 -6.30081e-009 4.04109e-011 -1.65236e-009 -3.64693e-009 7.73091 5.47488 0.417314 4.03994e-011 -1.65236e-009 -3.64688e-009 2.90554 0.965183 0.102902 4.04094e-011 -1.65236e-009 -3.64691e-009 10.2786 0.731801 0.0259123 4.0398e-011 -1.65236e-009 -3.6469e-009 2.22167 -0.733487 -0.20892 6.04559e-014 -1.02636e-012 7.85199e-014 -58.2549 52.7334 -27.2093 28.2981 -38.3609 -81.0318 3.56888 -46.0547 8.38433 2.17629e-009 -1.82395e-009 1.68459e-009 3.68847e-009 -3.19423e-009 2.98286e-009 2.17629e-009 -1.82396e-009 1.6846e-009 -7.73091 5.47488 -0.417314 2.17629e-009 -1.82395e-009 1.68459e-009 -2.90554 0.965183 -0.102902 2.17629e-009 -1.82395e-009 1.68459e-009 -10.2786 0.731801 -0.0259123 2.1763e-009 -1.82395e-009 1.68459e-009 -2.22167 -0.733487 0.20892 -2.03217e-016 0 -3.88251e-019 -3.31269 -4.12883 -2.8295 0.0176098 10.8093 0.294289 -3.24324 -9.78267 -18.779 2.03217e-016 0 3.88251e-019 7.79099 -14.1605 -2.33988 0.155151 23.754 -0.555894 3.92969 -15.2705 9.29566 
-46.1563 83.8275 -88.9792 5.47612 -3.40163 -89.1281 7.11034 5.5875 0.971365 2.55443 -6.75294 0.709982 -5.5716 -5.26142 -3.68923 3.49669 8.52868 -4.94496 -0 0 0 -0 0 0 4.30745e-014 -1.13174e-012 8.40013e-014 60.1006 43.0491 21.2691 -28.2102 -39.1622 82.4038 -0.26047 -14.379 -2.0648 4.97876e-011 -1.71187e-009 -4.00668e-009 1.2567e-010 -2.96551e-009 -6.92303e-009 4.97903e-011 -1.71187e-009 -4.00669e-009 7.73091 5.47488 0.417314 4.978e-011 -1.71186e-009 -4.00666e-009 2.90554 0.965183 0.102902 4.97897e-011 -1.71187e-009 -4.00668e-009 10.2786 0.731801 0.0259123 4.97791e-011 -1.71187e-009 -4.00667e-009 2.22167 -0.733487 -0.20892 4.31511e-014 -1.13171e-012 8.38887e-014 -56.9363 51.5241 -29.4441 28.3609 -37.7298 -79.9129 3.70722 -46.6989 8.57599 2.46056e-009 -2.01606e-009 1.85629e-009 4.17126e-009 -3.53277e-009 3.28981e-009 2.46056e-009 -2.01606e-009 1.8563e-009 -7.73091 5.47488 -0.417314 2.46056e-009 -2.01606e-009 1.85629e-009 -2.90554 0.965183 -0.102902 2.46055e-009 -2.01606e-009 1.85629e-009 -10.2786 0.731801 -0.0259123 2.46057e-009 -2.01605e-009 1.85629e-009 -2.22167 -0.733487 0.20892 -2.03217e-016 0 -3.88251e-019 -3.29759 -4.15117 -2.79392 0.0176596 10.8256 0.295155 -3.22176 -9.72532 -18.7818 2.03217e-016 0 3.88251e-019 7.84253 -14.2299 -2.20154 0.156146 23.8721 -0.555488 3.88303 -15.2312 9.18142 
-46.2369 83.83 -88.9918 5.4397 -3.35532 -89.084 7.08392 5.62491 1.01995 2.61759 -6.74569 0.726752 -5.51463 -5.17146 -3.63775 3.42896 8.42985 -4.86316 -0 0 0 -0 0 0 5.21065e-015 -1.09293e-012 7.79981e-014 58.6476 42.2014 23.4823 -28.2789 -38.6063 81.4308 -0.267517 -14.5652 -2.09275 6.25994e-011 -1.53046e-009 -3.88374e-009 1.47856e-010 -2.65152e-009 -6.71131e-009 6.26004e-011 -1.53045e-009 -3.88375e-009 7.73091 5.47488 0.417314 6.25935e-011 -1.53045e-009 -3.88373e-009 2.90554 0.965183 0.102902 6.26018e-011 -1.53046e-009 -3.88374e-009 10.2786 0.731801 0.0259123 6.2593e-011 -1.53045e-009 -3.88374e-009 2.22167 -0.733487 -0.20892 5.3252e-015 -1.09292e-012 7.79174e-014 -55.6823 50.2504 -31.5768 28.4061 -37.0382 -78.7291 3.86808 -47.4177 8.79594 2.42646e-009 -1.9313e-009 1.77567e-009 4.11363e-009 -3.38848e-009 3.15112e-009 2.42646e-009 -1.93129e-009 1.77568e-009 -7.73091 5.47488 -0.417314 2.42646e-009 -1.93129e-009 1.77567e-009 -2.90554 0.965183 -0.102902 2.42645e-009 -1.93129e-009 1.77567e-009 -10.2786 0.731801 -0.0259123 2.42647e-009 -1.93129e-009 1.77567e-009 -2.22167 -0.733487 0.20892 -2.03217e-016 0 -3.88251e-019 -3.35388 -4.17828 -2.74903 0.0176641 10.8268 0.295219 -3.19859 -9.6517 -18.7893 2.03217e-016 0 3.88251e-019 7.8127 -14.2718 -2.0982 0.156759 23.9335 -0.554401 3.85163 -15.1874 9.11117 
-46.3205 83.8333 -89.0337 5.41979 -3.28296 -89.0642 7.03026 5.65293 1.06144 2.66257 -6.74375 0.739542 -5.47803 -5.10985 -3.60067 3.40018 8.36047 -4.80405 -0 0 0 -0 0 0 -3.40869e-014 -9.575e-013 6.49878e-014 57.3334 41.3155 25.5656 -28.3344 -38.0076 80.4117 -0.275937 -14.7854 -2.12585 5.90132e-011 -1.2196e-009 -3.38431e-009 1.37712e-010 -2.11318e-009 -5.84916e-009 5.90126e-011 -1.2196e-009 -3.38432e-009 7.73091 5.47488 0.417314 5.90091e-011 -1.2196e-009 -3.38431e-009 2.90554 0.965183 0.102902 5.90161e-011 -1.2196e-009 -3.38432e-009 10.2786 0.731801 0.0259123 5.90091e-011 -1.2196e-009 -3.38432e-009 2.22167 -0.733487 -0.20892 -3.39494e-014 -9.57494e-013 6.49296e-014 -54.4627 48.9763 -33.6323 28.4293 -36.3218 -77.5356 4.03869 -48.1469 9.02605 2.14142e-009 -1.64116e-009 1.50366e-009 3.63089e-009 -2.88403e-009 2.67335e-009 2.14141e-009 -1.64115e-009 1.50367e-009 -7.73091 5.47488 -0.417314 2.14142e-009 -1.64116e-009 1.50367e-009 -2.90554 0.965183 -0.102902 2.14141e-009 -1.64116e-009 1.50367e-009 -10.2786 0.731801 -0.0259123 2.14143e-009 -1.64116e-009 1.50366e-009 -2.22167 -0.733487 0.20892 -2.03217e-016 0 -3.88251e-019 -3.44513 -4.21604 -2.72713 0.0176817 10.8203 0.295186 -3.17633 -9.57747 -18.7955 2.03217e-016 0 3.88251e-019 7.7412 -14.3179 -2.02587 0.157122 23.9607 -0.553002 3.82842 -15.1277 9.07004 
